
<svg xmlns="http://www.w3.org/2000/svg" width="189" height="32"><path fill="#fff" d="M47.36 8.063h6.691c.955 0 1.836.198 2.639.596.805.398 1.437.941 1.9 1.626s.694 1.434.694 2.245c0 .86-.211 1.605-.634 2.235a4.167 4.167 0 0 1-1.66 1.445v.192c.892.317 1.6.823 2.126 1.517.525.692.788 1.524.788 2.496 0 .941-.251 1.773-.753 2.497a4.924 4.924 0 0 1-2.001 1.661l-.031.012c-.851.39-1.796.585-2.831.585h-6.929V8.063zm6.451 6.976c.701 0 1.262-.195 1.684-.585s.634-.881.634-1.469c0-.573-.204-1.055-.609-1.446-.407-.389-.945-.585-1.613-.585h-3.322v4.086h3.226zm.359 7.192c.781 0 1.39-.204 1.828-.609s.657-.936.657-1.588c0-.653-.223-1.187-.668-1.601-.447-.415-1.084-.621-1.912-.621h-3.488v4.42h3.584zm16.546 3.322c-1.673 0-3.19-.394-4.552-1.183a8.66 8.66 0 0 1-3.192-3.196l-.022-.042c-.781-1.37-1.171-2.875-1.171-4.516 0-1.64.39-3.145 1.171-4.516a8.655 8.655 0 0 1 3.172-3.215l.041-.022c1.364-.788 2.88-1.183 4.554-1.183 1.672 0 3.19.394 4.552 1.183a8.665 8.665 0 0 1 3.191 3.196l.022.042c.781 1.37 1.171 2.875 1.171 4.515 0 1.641-.39 3.146-1.171 4.516a8.657 8.657 0 0 1-3.172 3.216l-.041.022c-1.362.788-2.88 1.183-4.552 1.183zm0-3.06h.059c1.04 0 2.016-.275 2.86-.755l-.028.015a5.381 5.381 0 0 0 2.053-2.052l.014-.027c.502-.892.753-1.912.753-3.059s-.251-2.166-.753-3.058a5.392 5.392 0 0 0-2.041-2.065l-.026-.014a5.722 5.722 0 0 0-2.834-.741h-.06.003-.063a5.696 5.696 0 0 0-2.845.756l.028-.015a5.402 5.402 0 0 0-2.04 2.052l-.014.027c-.502.892-.753 1.911-.753 3.059 0 1.146.251 2.166.753 3.058a5.416 5.416 0 0 0 2.028 2.065l.026.014c.81.466 1.78.74 2.815.74h.069-.003zm19.652 3.06c-1.673 0-3.19-.394-4.552-1.183a8.665 8.665 0 0 1-3.191-3.196l-.022-.042c-.781-1.37-1.171-2.875-1.171-4.516 0-1.64.39-3.145 1.17-4.516a8.657 8.657 0 0 1 3.173-3.215l.041-.022c1.362-.788 2.88-1.183 4.552-1.183 1.673 0 3.19.394 4.552 1.183a8.665 8.665 0 0 1 3.191 3.196l.022.042c.781 1.37 1.171 2.875 1.171 4.515 0 1.641-.39 3.146-1.17 4.516a8.652 8.652 0 0 1-3.173 3.216l-.041.022c-1.362.788-2.88 1.183-4.552 1.183zm0-3.06h.06c1.04 0 2.016-.275 2.86-.755l-.028.015a5.392 5.392 0 0 0 2.052-2.052l.014-.027c.502-.892.753-1.912.753-3.059s-.251-2.166-.753-3.058a5.39 5.39 0 0 0-2.04-2.065l-.026-.014a5.722 5.722 0 0 0-2.834-.741h-.061.003-.063a5.696 5.696 0 0 0-2.845.756l.028-.015a5.402 5.402 0 0 0-2.04 2.052l-.014.027c-.502.892-.753 1.911-.753 3.059 0 1.146.251 2.166.753 3.058a5.407 5.407 0 0 0 2.03 2.065l.026.014c.81.466 1.78.74 2.815.74h.067-.003zm11.814-14.429h3.226v7.334h.192l6.259-7.334h3.895v.191l-6.186 7.071 6.833 9.654v.191h-3.942l-5.112-7.287-1.935 2.269v5.018h-3.226V8.064zm17.855-.384h4.157l4.539 12.019h.192l4.538-12.019h4.182v17.107h-3.201v-8.434l.192-2.843h-.192l-4.349 11.277h-2.509l-4.372-11.277h-.191l.192 2.843v8.435h-3.178V7.68zm26.624 0h3.704l6.427 17.107h-3.56l-1.434-4.086h-6.547l-1.434 4.086h-3.56L146.66 7.68zm4.087 10.06-1.505-4.301-.622-2.056h-.191l-.621 2.056-1.53 4.301h4.467zm8.68-10.06h6.236c1.115 0 2.107.23 2.975.692a5 5 0 0 1 2.019 1.924c.479.819.717 1.748.717 2.784a4.508 4.508 0 0 1-1.039 2.926 5.936 5.936 0 0 1-2.575 1.839l-.041.013-.023.166 4.588 6.572v.192h-3.704l-4.42-6.428h-1.505v6.427h-3.226V7.68zm6.212 7.718c.733 0 1.331-.224 1.792-.669.462-.447.694-1.011.694-1.697 0-.653-.22-1.21-.658-1.672s-1.032-.694-1.779-.694h-3.035v4.731h2.986zm9.254-7.718h3.226v7.334h.192l6.259-7.334h3.895v.192l-6.189 7.072 6.835 9.652v.192h-3.942l-5.115-7.288-1.935 2.269v5.018h-3.226V7.68z"/><path fill="#4f62e3" d="M32 16c0 8.837-7.163 16-16 16S0 24.837 0 16 7.163 0 16 0s16 7.163 16 16z"/><path fill="#fff" d="M11.52 11.52v12.8l4.531-4.403 4.529 4.403v-12.8a2.56 2.56 0 0 0-2.56-2.56h-3.94a2.56 2.56 0 0 0-2.56 2.56z"/></svg>